<svg xmlns="http://www.w3.org/2000/svg" viewBox="-32 -28 64 64" shape-rendering="crispEdges">
  <title>Team Lead</title>
  <g fill="#00e5ff"><rect x="-4" y="-12" width="8" height="4"/><rect x="-4" y="-8" width="8" height="4"/><rect x="-4" y="-4" width="8" height="4"/><rect x="-8" y="0" width="16" height="4"/><rect x="-12" y="4" width="24" height="4"/><rect x="-16" y="8" width="4" height="4"/><rect x="-4" y="8" width="8" height="4"/><rect x="12" y="8" width="4" height="4"/><rect x="-4" y="12" width="8" height="4"/></g>
  <g fill="#7ff3ff"><rect x="-4" y="-16" width="8" height="4"/><rect x="-8" y="-4" width="4" height="4"/><rect x="4" y="-4" width="4" height="4"/><rect x="-12" y="0" width="4" height="4"/><rect x="8" y="0" width="4" height="4"/><rect x="-16" y="4" width="4" height="4"/><rect x="12" y="4" width="4" height="4"/><rect x="-20" y="8" width="4" height="4"/><rect x="16" y="8" width="4" height="4"/><rect x="-28" y="12" width="8" height="4"/><rect x="20" y="12" width="8" height="4"/><rect x="-8" y="16" width="4" height="4"/><rect x="4" y="16" width="4" height="4"/><rect x="-12" y="20" width="4" height="4"/><rect x="8" y="20" width="4" height="4"/></g>
  <g fill="#00b8cc"><rect x="-12" y="8" width="8" height="4"/><rect x="4" y="8" width="8" height="4"/><rect x="-20" y="12" width="8" height="4"/><rect x="12" y="12" width="8" height="4"/><rect x="-4" y="16" width="8" height="4"/></g>
</svg>
