<svg xmlns="http://www.w3.org/2000/svg" viewBox="0 0 16 16" width="16" height="16">
  <path fill="#4fc3f7" d="M5 3.5a1.5 1.5 0 1 1-1 1.415V8.5a3 3 0 0 0 3 3h1.086a1.5 1.5 0 1 1 0 1H7a4 4 0 0 1-4-4V4.915A1.5 1.5 0 0 1 5 3.5zm6 7a1.5 1.5 0 1 1 0 3 1.5 1.5 0 0 1 0-3zM5 4.5a.5.5 0 1 0 0 1 .5.5 0 0 0 0-1zm6 7a.5.5 0 1 0 0 1 .5.5 0 0 0 0-1z"/>
  <path fill="#4fc3f7" d="M11 2a1.5 1.5 0 0 1 1 2.583V7.5a3 3 0 0 1-3 3H7.914A1.5 1.5 0 1 1 7.914 9H9a2 2 0 0 0 2-2V4.583A1.5 1.5 0 0 1 11 2zm0 1a.5.5 0 1 0 0 1 .5.5 0 0 0 0-1z"/>
</svg>
